<?xml version="1.0" encoding="iso-8859-1"?>
<!-- Uploaded to: SVG Repo, www.svgrepo.com, Generator: SVG Repo Mixer Tools -->
<svg height="800px" width="800px" version="1.1" id="Layer_1" xmlns="http://www.w3.org/2000/svg" xmlns:xlink="http://www.w3.org/1999/xlink" 
	 viewBox="0 0 512 512" xml:space="preserve">
<g>
	<path style="fill:#E54728;" d="M10.94,444.09C4.897,444.09,0,439.192,0,433.15v-37.926c0-3.679,1.85-7.113,4.923-9.136L100,323.467
		c5.043-3.323,11.83-1.928,15.154,3.119c3.323,5.046,1.927,11.831-3.12,15.154L21.88,401.118v32.031
		C21.88,439.192,16.984,444.09,10.94,444.09z"/>
	<path style="fill:#E54728;" d="M63.446,496.606c-4.836,0-9.261-3.232-10.564-8.128L42.29,448.714
		c-1.004-3.771,0.076-7.792,2.834-10.552l79.849-79.849c4.275-4.272,11.201-4.271,15.472,0c4.273,4.273,4.273,11.198,0,15.471
		l-75.388,75.392l8.967,33.671c1.555,5.839-1.917,11.833-7.754,13.388C65.324,496.486,64.378,496.606,63.446,496.606z"/>
	<path style="fill:#E54728;" d="M142.232,503.839c-3.712,0-7.333-1.89-9.387-5.305l-17.504-29.115
		c-2.067-3.437-2.087-7.73-0.053-11.185l38.291-65.072c0.446-0.759,0.983-1.462,1.599-2.092c4.22-4.326,11.153-4.417,15.477-0.198
		c3.778,3.685,4.326,9.429,1.594,13.706l-34.801,59.144l14.151,23.539c3.114,5.178,1.438,11.9-3.739,15.013
		C146.095,503.335,144.151,503.839,142.232,503.839z"/>
</g>
<g>
	<path style="fill:#f87315;" d="M469.698,448.714l-10.576,39.764c-1.298,4.887-5.733,8.125-10.561,8.125
		c-0.934,0-1.882-0.117-2.83-0.365c-5.835-1.561-9.306-7.541-7.76-13.391l8.956-33.667l-62.082-62.082l-13.303-13.318
		c-4.274-4.274-4.274-11.188,0-15.462c4.274-4.274,11.188-4.274,15.462,0l79.849,79.849
		C469.61,440.925,470.704,444.936,469.698,448.714z"/>
	<path style="fill:#f87315;" d="M396.661,469.413l-17.504,29.115c-2.057,3.413-5.674,5.31-9.394,5.31
		c-1.911,0-3.851-0.511-5.616-1.561c-5.178-3.122-6.856-9.832-3.749-15.01l14.149-23.543l-24.462-41.543l-10.546-17.927
		c-3.063-5.208-1.342-11.918,3.866-14.981c5.222-3.063,11.917-1.327,14.981,3.866l8.752,14.849l29.568,50.237
		C398.747,461.682,398.733,465.985,396.661,469.413z"/>
	<path style="fill:#f87315;" d="M512,395.224v37.926c0,6.039-4.901,10.94-10.94,10.94c-6.039,0-10.94-4.901-10.94-10.94v-32.004
		l-53.534-34.892l-52.104-33.973c-5.062-3.297-6.477-10.08-3.18-15.141c3.297-5.062,10.08-6.491,15.141-3.18l68.471,44.636
		l42.127,27.467C510.133,388.076,512,391.533,512,395.224z"/>
</g>
<g>
	<path style="fill:#333333;" d="M222.984,226.893c-3.569,0-7.07-1.746-9.168-4.957l-0.248-0.379
		c-0.034-0.054-0.069-0.106-0.102-0.16l-10.78-17.14c-3.216-5.114-1.677-11.868,3.435-15.086c5.117-3.216,11.871-1.677,15.086,3.437
		l10.924,17.358c3.305,5.059,1.885,11.837-3.174,15.143C227.112,226.316,225.036,226.893,222.984,226.893z"/>
	<path style="fill:#333333;" d="M289,226.893c-2.052,0-4.128-0.578-5.975-1.784c-5.059-3.305-6.478-10.085-3.174-15.143l0.197-0.3
		l10.745-17.062c3.221-5.113,9.973-6.647,15.089-3.428c5.113,3.219,6.647,9.975,3.428,15.087l-10.793,17.14
		c-0.032,0.053-0.067,0.104-0.099,0.155l-0.248,0.379C296.07,225.148,292.569,226.893,289,226.893z"/>
</g>
<g>
	<path style="fill:#E54728;" d="M410.392,300.292l-6.757-20.811l10.405-3.378c13.472-4.375,23.753-8.137,29.821-10.447
		c0.785-14.04,1.478-50.217-7.245-100.161c-0.108-0.621-0.162-1.252-0.162-1.882v-10.94l21.88-0.015v10.011
		c11.672,67.483,6.99,110.127,6.784,111.916c-0.455,3.952-3.017,7.345-6.694,8.862c-0.578,0.238-14.402,5.922-37.628,13.465
		L410.392,300.292z"/>
	<path style="fill:#E54728;" d="M101.592,300.294l-10.405-3.38c-23.214-7.541-37.036-13.226-37.612-13.465
		c-3.677-1.518-6.239-4.91-6.694-8.862c-0.206-1.791-4.89-44.433,6.784-111.918v-9.996l21.88-0.015v10.94
		c0,0.632-0.054,1.275-0.163,1.896c-8.722,49.941-8.029,86.114-7.244,100.161c6.067,2.309,16.345,6.073,29.81,10.447l10.405,3.381
		L101.592,300.294z"/>
</g>
<path style="fill:#f87315;" d="M447.395,184.035c-7.629,3.413-16.089,5.324-24.987,5.324l-50.179-33.258
	c0-36.876,24.914-63.438-10.926-72.088V8.161h2.101c66.341,0,120.108,53.767,120.108,120.094c0,16.877-6.841,32.15-17.898,43.206
	C460.392,176.683,454.221,180.972,447.395,184.035z"/>
<g>
	<path style="fill:#E54728;" d="M358.385,393.138l8.752,14.849c-5.295,5.164-10.999,9.905-17.052,14.193l-10.546-17.927
		c-3.063-5.208-1.342-11.918,3.866-14.981C348.627,386.209,355.322,387.945,358.385,393.138z"/>
	<path style="fill:#E54728;" d="M387.005,358.319l16.79,16.79l-4.303,1.152h-7.819c-2.115,3.72-4.391,7.337-6.827,10.838
		l-13.303-13.318c-4.274-4.274-4.274-11.188,0-15.462C375.817,354.045,382.731,354.045,387.005,358.319z"/>
	<path style="fill:#E54728;" d="M464.914,358.596L464.914,358.596c-3.759,8.43-13.295,12.638-22.057,9.735l-6.271-2.077
		l-52.104-33.973c-5.062-3.297-6.477-10.08-3.18-15.141c3.297-5.062,10.08-6.491,15.141-3.18L464.914,358.596z"/>
</g>
<g>
	<path style="fill:#f87315;" d="M64.605,184.035c-6.841-3.063-13.012-7.352-18.234-12.574
		c-11.057-11.057-17.898-26.329-17.898-43.206c0-66.327,53.782-120.094,120.108-120.094h2.101v75.852
		c-35.84,8.65-20.597,38.13-20.597,75.006l-40.508,30.341C80.68,189.359,72.234,187.463,64.605,184.035z"/>
	<path style="fill:#f87315;" d="M289.258,211.925c51.565,8.3,96.769,35.65,128.16,74.583c12.1,15.003,22.149,31.721,29.722,49.736
		c5.956,14.167-4.647,29.807-20.015,29.807h-40.034h-7.819c-24.36,42.885-70.426,71.84-123.274,71.84
		c-35.592,0-68.106-13.128-92.991-34.804c-12.078-10.517-22.347-23.033-30.297-37.036H54.92
		c7.396-29.538,21.122-56.553,39.647-79.542c31.391-38.932,76.596-66.283,128.16-74.583c10.838-1.765,21.939-2.669,33.273-2.669
		C267.319,209.256,278.435,210.16,289.258,211.925z"/>
</g>
<g>
	<path style="fill:#E54728;" d="M249.071,403.086c-7.541-6.567-14.378-13.914-20.387-21.915
		c-7.181-9.566-18.505-15.121-30.465-15.121l0,0c-30.104,0-48.277-33.061-32.409-58.644c4.515-7.279,9.467-14.257,14.819-20.899
		c29.393-36.454,70.898-62.753,118.395-72.767c-3.228-0.681-6.484-1.288-9.766-1.816c-10.823-1.765-21.939-2.669-33.258-2.669
		c-11.334,0-22.435,0.904-33.273,2.669c-51.565,8.3-96.769,35.65-128.16,74.583c-18.525,22.989-32.252,50.004-39.647,79.542h77.792
		c7.95,14.003,18.219,26.519,30.297,37.036c24.885,21.676,57.399,34.804,92.991,34.804c15.017,0,29.483-2.344,43.062-6.675
		C280.436,425.285,263.47,415.63,249.071,403.086z"/>
	<path style="fill:#E54728;" d="M422.407,161.615v27.744c-16.877,0-32.15-6.841-43.206-17.898
		c-11.057-11.057-17.898-26.329-17.898-43.206V84.012C397.143,92.663,422.407,124.739,422.407,161.615z"/>
	<path style="fill:#E54728;" d="M150.683,84.012v44.242c0,16.877-6.841,32.15-17.898,43.206s-26.329,17.898-43.206,17.898v-27.744
		C89.578,124.739,114.843,92.663,150.683,84.012z"/>
</g>
</svg>